<svg width="121" height="121" viewBox="0 0 121 121" fill="none" xmlns="http://www.w3.org/2000/svg">
<path d="M40.6825 13.1087C48.6827 -3.48673 72.3173 -3.48674 80.3175 13.1087L85.9478 24.788C88.1094 29.272 91.7278 32.8904 96.2118 35.052L107.891 40.6823C124.486 48.6825 124.487 72.3171 107.891 80.3173L96.2118 85.9476C91.7278 88.1092 88.1094 91.7276 85.9478 96.2116L80.3175 107.891C72.3173 124.486 48.6827 124.487 40.6825 107.891L35.0522 96.2116C32.8906 91.7276 29.2722 88.1092 24.7882 85.9476L13.1089 80.3173C-3.48649 72.3171 -3.4865 48.6825 13.1089 40.6823L24.7882 35.052C29.2722 32.8904 32.8906 29.272 35.0522 24.788L40.6825 13.1087Z" fill="#142CB1"/>
</svg>
