<svg width="279" height="299" viewBox="0 0 279 299" fill="none" xmlns="http://www.w3.org/2000/svg">
<g clip-path="url(#clip0_3_349)">
<path d="M172.688 19.787C157.549 31.4574 148.991 47.674 139.77 63.0607C130.549 78.4475 119.537 94.0899 101.626 102.646C88.9212 108.71 70.3732 103.978 56.8036 108.606C34.9606 116.098 25.9853 123.185 19.3902 142.146C11.5421 164.707 53.2296 226.992 96.6405 244.131C123.217 254.625 161.619 253.355 184.038 238.378C206.458 223.4 205.503 190.696 210.934 166.956C214.818 149.866 214.857 131.804 223.207 115.956C230.604 101.909 244.082 90.5903 250.847 76.3066C259.841 57.3167 255.212 30.7565 236.875 15.6089C218.834 0.740864 189.124 7.15546 172.688 19.787Z" fill="#142CB1"/>
<g opacity="0.9">
<path opacity="0.9" d="M172.688 19.787C157.549 31.4574 148.991 47.674 139.77 63.0607C130.549 78.4475 119.537 94.0899 101.626 102.646C88.9212 108.71 70.3732 103.978 56.8036 108.606C34.9606 116.098 25.9853 123.185 19.3902 142.146C11.5421 164.707 53.2296 226.992 96.6405 244.131C123.217 254.625 161.619 253.355 184.038 238.378C206.458 223.4 205.503 190.696 210.934 166.956C214.818 149.866 214.857 131.804 223.207 115.956C230.604 101.909 244.082 90.5903 250.847 76.3066C259.841 57.3167 255.212 30.7565 236.875 15.6089C218.834 0.740864 189.124 7.15546 172.688 19.787Z" fill="white"/>
<path opacity="0.9" d="M126.126 251.075C115.978 250.365 105.991 248.154 96.4912 244.513C76.7741 236.739 55.0825 218.38 38.4526 195.414C22.844 173.853 15.1995 152.888 18.9818 142.003C25.3793 123.609 33.82 116.018 56.6727 108.194C63.0364 106.014 70.5464 105.84 77.8627 105.736C86.1579 105.588 94.7281 105.426 101.445 102.221C119.106 93.7999 130.166 78.3152 139.402 62.8441C140.391 61.1146 141.456 59.391 142.489 57.6478C150.569 43.9702 158.924 29.8176 172.422 19.45C189.796 6.10325 219.47 0.712798 237.123 15.2857C254.776 29.8586 260.827 56.1775 251.234 76.4991C247.676 84.0296 242.181 90.829 236.873 97.4032C232.067 103.357 227.102 109.487 223.593 116.166C217.92 126.931 216.076 138.975 214.29 150.613C213.453 156.034 212.587 161.606 211.362 167.066C210.137 172.526 209.241 178.267 208.315 184.4C205.251 204.412 201.775 227.096 184.326 238.751C173.645 245.878 158.618 250.317 141.987 251.244C136.702 251.538 131.404 251.481 126.126 251.075ZM172.688 19.787L172.943 20.1319C159.572 30.4066 151.257 44.4768 143.219 58.0634C142.229 59.8014 141.171 61.5341 140.131 63.2597C130.792 78.8512 119.68 94.4518 101.814 102.985C94.9282 106.272 86.2638 106.434 77.8828 106.585C70.6588 106.713 63.194 106.857 56.9448 108.994C34.4167 116.715 26.0801 124.177 19.7913 142.271C16.0967 152.906 23.6876 173.567 39.1424 194.902C55.6794 217.742 77.2336 235.995 96.8008 243.716C124.458 254.626 162.673 252.119 183.802 238.009C200.943 226.561 204.234 205.052 207.432 184.204C208.367 178.063 209.26 172.253 210.483 166.81C211.707 161.367 212.569 155.846 213.397 150.424C215.198 138.71 217.055 126.599 222.79 115.702C226.337 108.983 231.332 102.787 236.157 96.809C241.437 90.2668 246.895 83.5073 250.42 76.0769C259.875 56.0956 253.952 30.223 236.563 15.8844C219.175 1.54583 190.05 6.91866 172.914 20.0697L172.688 19.787Z" fill="white"/>
</g>
<path opacity="0.1" d="M146.934 62.4743L118.479 168.909H128.047L156.186 62.4743H146.934Z" fill="white"/>
<path opacity="0.1" d="M161.705 62.4743L133.249 168.909H152.235L180.374 62.4743H161.705Z" fill="white"/>
<path d="M264.144 158.504L270.176 73.0756C270.232 72.4192 270.149 71.7583 269.934 71.1358C269.718 70.5133 269.375 69.943 268.925 69.4618C268.475 68.9806 267.929 68.5993 267.322 68.3425C266.715 68.0856 266.062 67.9591 265.403 67.971L116.307 68.0992C114.92 68.1183 113.59 68.652 112.574 69.5966C111.558 70.5412 110.93 71.8294 110.81 73.2113L104.816 158.647C104.761 159.304 104.845 159.965 105.061 160.587C105.277 161.21 105.622 161.78 106.072 162.261C106.523 162.742 107.069 163.123 107.676 163.38C108.283 163.637 108.937 163.763 109.596 163.752L258.632 163.623C260.023 163.61 261.359 163.077 262.379 162.13C263.398 161.183 264.027 159.89 264.144 158.504Z" fill="#263238"/>
<path d="M262.229 156.641L268.261 71.2132C268.318 70.5565 268.236 69.8952 268.021 69.2722C267.806 68.6491 267.462 68.0783 267.012 67.5969C266.562 67.1154 266.016 66.7341 265.408 66.4777C264.801 66.2213 264.147 66.0955 263.488 66.1086L114.392 66.2368C113.005 66.2544 111.675 66.7877 110.66 67.7328C109.645 68.6779 109.019 69.967 108.903 71.3489L102.871 156.785C102.815 157.441 102.897 158.102 103.113 158.724C103.328 159.347 103.672 159.917 104.122 160.398C104.572 160.88 105.118 161.261 105.724 161.518C106.331 161.775 106.985 161.901 107.644 161.889L256.732 161.761C258.121 161.743 259.453 161.209 260.469 160.263C261.485 159.316 262.113 158.025 262.229 156.641Z" fill="#142CB1"/>
<path opacity="0.6" d="M258.278 157.908C257.971 158.19 257.57 158.346 257.154 158.345L108.058 158.474C107.819 158.471 107.583 158.42 107.364 158.323C107.145 158.227 106.948 158.087 106.784 157.912C106.621 157.738 106.494 157.532 106.413 157.307C106.331 157.082 106.296 156.843 106.309 156.604L112.341 71.1755C112.364 70.7607 112.548 70.3712 112.854 70.0897C113.158 69.8049 113.56 69.6483 113.977 69.6524L263.073 69.5242C263.312 69.5269 263.549 69.578 263.768 69.6745C263.986 69.7709 264.184 69.9108 264.347 70.0855C264.511 70.2602 264.637 70.4663 264.719 70.6912C264.8 70.9161 264.836 71.1552 264.822 71.3941L258.79 156.822C258.763 157.236 258.58 157.624 258.278 157.908Z" fill="white"/>
<path d="M208.687 110.941H156.352C155.891 110.949 155.448 111.124 155.105 111.433C154.763 111.742 154.544 112.165 154.49 112.623L153.683 120.276C153.657 120.489 153.677 120.704 153.741 120.909C153.805 121.113 153.912 121.301 154.055 121.461C154.198 121.621 154.373 121.749 154.569 121.835C154.764 121.922 154.977 121.966 155.191 121.965H207.526C207.989 121.956 208.433 121.78 208.776 121.469C209.12 121.159 209.34 120.735 209.396 120.276L210.195 112.623C210.22 112.411 210.199 112.196 210.134 111.992C210.069 111.789 209.962 111.601 209.82 111.443C209.677 111.284 209.502 111.157 209.307 111.07C209.112 110.984 208.901 110.94 208.687 110.941Z" fill="white"/>
<path d="M162.58 142.195H154.414C153.951 142.204 153.507 142.38 153.164 142.69C152.82 143 152.6 143.424 152.544 143.884L151.745 151.537C151.72 151.749 151.741 151.964 151.806 152.167C151.871 152.371 151.978 152.558 152.12 152.717C152.263 152.876 152.438 153.003 152.633 153.089C152.828 153.176 153.039 153.22 153.253 153.218H161.419C161.88 153.209 162.323 153.034 162.667 152.726C163.01 152.417 163.231 151.995 163.289 151.537L164.088 143.884C164.114 143.671 164.094 143.455 164.03 143.251C163.965 143.046 163.858 142.858 163.716 142.698C163.573 142.539 163.398 142.411 163.202 142.324C163.006 142.237 162.794 142.193 162.58 142.195Z" fill="white"/>
<path d="M176.68 142.195H168.514C168.051 142.204 167.607 142.38 167.264 142.69C166.92 143 166.7 143.424 166.644 143.884L165.845 151.537C165.82 151.749 165.841 151.964 165.906 152.167C165.97 152.371 166.078 152.558 166.22 152.717C166.363 152.876 166.537 153.003 166.733 153.089C166.928 153.176 167.139 153.22 167.353 153.218H175.519C175.98 153.209 176.423 153.034 176.767 152.726C177.11 152.417 177.331 151.995 177.389 151.537L178.188 143.884C178.213 143.671 178.194 143.455 178.129 143.251C178.065 143.046 177.958 142.858 177.816 142.698C177.673 142.539 177.498 142.411 177.302 142.324C177.106 142.237 176.894 142.193 176.68 142.195Z" fill="white"/>
<path d="M190.772 142.195H182.614C182.151 142.204 181.707 142.38 181.364 142.69C181.02 143 180.8 143.424 180.744 143.884L179.945 151.537C179.92 151.749 179.941 151.964 180.005 152.167C180.07 152.371 180.177 152.558 180.32 152.717C180.462 152.876 180.637 153.003 180.832 153.089C181.028 153.176 181.239 153.22 181.453 153.218H189.618C190.08 153.209 190.523 153.034 190.866 152.726C191.21 152.417 191.43 151.995 191.488 151.537L192.28 143.884C192.306 143.671 192.286 143.455 192.222 143.251C192.157 143.046 192.05 142.858 191.908 142.698C191.765 142.539 191.59 142.411 191.394 142.324C191.198 142.237 190.986 142.193 190.772 142.195Z" fill="white"/>
<path d="M204.879 142.195H196.714C196.251 142.204 195.807 142.38 195.463 142.69C195.12 143 194.9 143.424 194.844 143.884L194.044 151.537C194.02 151.749 194.041 151.964 194.105 152.167C194.17 152.371 194.277 152.558 194.42 152.717C194.562 152.876 194.737 153.003 194.932 153.089C195.127 153.176 195.339 153.22 195.552 153.218H203.718C204.18 153.209 204.623 153.034 204.966 152.726C205.309 152.417 205.53 151.995 205.588 151.537L206.387 143.884C206.413 143.671 206.393 143.455 206.329 143.251C206.265 143.046 206.158 142.858 206.015 142.698C205.872 142.539 205.697 142.411 205.502 142.324C205.306 142.237 205.094 142.193 204.879 142.195Z" fill="white"/>
<path d="M195.65 137.362H162.919C162.5 137.372 162.084 137.291 161.699 137.125C161.314 136.959 160.969 136.712 160.688 136.4C160.408 136.089 160.198 135.72 160.072 135.32C159.947 134.92 159.91 134.498 159.964 134.082L160.356 130.312C160.464 129.439 160.884 128.634 161.538 128.046C162.191 127.457 163.035 127.124 163.915 127.107H196.646C197.065 127.098 197.482 127.18 197.867 127.347C198.252 127.514 198.596 127.762 198.877 128.074C199.157 128.386 199.367 128.754 199.492 129.155C199.617 129.556 199.655 129.978 199.601 130.395L199.209 134.165C199.099 135.036 198.679 135.839 198.025 136.426C197.372 137.013 196.529 137.345 195.65 137.362ZM163.915 127.869C163.22 127.885 162.555 128.149 162.039 128.614C161.523 129.079 161.19 129.713 161.102 130.402L160.71 134.172C160.668 134.483 160.695 134.8 160.788 135.1C160.88 135.399 161.037 135.676 161.248 135.909C161.458 136.142 161.716 136.326 162.005 136.45C162.293 136.573 162.606 136.632 162.919 136.623H195.65C196.344 136.608 197.01 136.346 197.526 135.882C198.042 135.418 198.374 134.785 198.463 134.097L198.855 130.327C198.897 130.016 198.87 129.699 198.777 129.399C198.684 129.099 198.528 128.823 198.317 128.59C198.107 128.357 197.849 128.173 197.56 128.049C197.271 127.926 196.959 127.867 196.646 127.876L163.915 127.869Z" fill="#142CB1"/>
<path d="M210.572 95.0019H158.237C157.775 95.0129 157.333 95.1897 156.991 95.4998C156.649 95.8099 156.431 96.2326 156.375 96.6908L155.568 104.344C155.543 104.556 155.564 104.771 155.629 104.974C155.693 105.178 155.801 105.365 155.943 105.524C156.086 105.683 156.26 105.81 156.456 105.896C156.651 105.983 156.862 106.027 157.076 106.025H209.403C209.865 106.016 210.308 105.841 210.651 105.533C210.995 105.224 211.215 104.802 211.273 104.344L212.072 96.6908C212.098 96.4788 212.078 96.2637 212.015 96.0598C211.951 95.856 211.845 95.668 211.703 95.5083C211.561 95.3486 211.387 95.2209 211.192 95.1336C210.997 95.0463 210.786 95.0014 210.572 95.0019Z" fill="white"/>
<path d="M162.716 116.453C162.747 116.217 162.727 115.976 162.657 115.748C162.587 115.52 162.468 115.31 162.309 115.133C162.15 114.955 161.955 114.814 161.736 114.719C161.517 114.624 161.28 114.578 161.042 114.583C160.53 114.595 160.039 114.791 159.658 115.134C159.278 115.477 159.033 115.945 158.968 116.453C158.939 116.689 158.961 116.929 159.033 117.156C159.104 117.383 159.224 117.592 159.383 117.769C159.543 117.945 159.738 118.086 159.957 118.18C160.175 118.274 160.412 118.321 160.65 118.316C161.16 118.305 161.65 118.111 162.029 117.769C162.409 117.427 162.652 116.96 162.716 116.453Z" fill="#263238"/>
<path d="M168.476 116.453C168.507 116.216 168.486 115.976 168.415 115.748C168.344 115.52 168.224 115.31 168.064 115.133C167.905 114.955 167.709 114.814 167.49 114.719C167.271 114.624 167.034 114.578 166.795 114.583C166.283 114.594 165.792 114.789 165.413 115.133C165.033 115.476 164.79 115.945 164.729 116.453C164.698 116.689 164.719 116.929 164.79 117.156C164.861 117.383 164.979 117.592 165.138 117.769C165.297 117.945 165.493 118.086 165.711 118.18C165.929 118.275 166.165 118.321 166.403 118.316C166.914 118.305 167.405 118.112 167.786 117.77C168.166 117.428 168.411 116.961 168.476 116.453Z" fill="#263238"/>
<path d="M174.229 116.453C174.26 116.216 174.239 115.976 174.168 115.748C174.097 115.52 173.977 115.31 173.817 115.133C173.658 114.955 173.462 114.814 173.243 114.719C173.024 114.624 172.787 114.578 172.548 114.583C172.036 114.594 171.545 114.789 171.166 115.133C170.786 115.476 170.543 115.945 170.482 116.453C170.453 116.689 170.475 116.929 170.546 117.156C170.618 117.383 170.737 117.592 170.897 117.769C171.056 117.945 171.252 118.086 171.471 118.18C171.689 118.274 171.925 118.321 172.163 118.316C172.674 118.305 173.164 118.111 173.543 117.769C173.922 117.427 174.166 116.96 174.229 116.453Z" fill="#263238"/>
<path d="M179.982 116.453C180.014 116.217 179.994 115.976 179.924 115.748C179.854 115.52 179.735 115.31 179.576 115.133C179.417 114.955 179.221 114.814 179.002 114.719C178.784 114.624 178.547 114.578 178.308 114.583C177.797 114.594 177.306 114.789 176.926 115.133C176.547 115.476 176.304 115.945 176.242 116.453C176.211 116.692 176.233 116.935 176.306 117.164C176.379 117.393 176.501 117.604 176.664 117.781C176.828 117.958 177.028 118.097 177.251 118.188C177.473 118.279 177.714 118.32 177.954 118.308C178.457 118.289 178.937 118.092 179.308 117.752C179.68 117.413 179.918 116.952 179.982 116.453Z" fill="#263238"/>
<path d="M185.856 116.453C185.886 116.216 185.865 115.976 185.794 115.748C185.723 115.52 185.604 115.31 185.444 115.133C185.285 114.955 185.088 114.814 184.869 114.719C184.65 114.624 184.413 114.578 184.175 114.583C183.663 114.594 183.172 114.789 182.793 115.133C182.413 115.476 182.17 115.945 182.109 116.453C182.078 116.689 182.099 116.929 182.17 117.156C182.24 117.383 182.359 117.592 182.518 117.769C182.677 117.945 182.872 118.086 183.091 118.18C183.309 118.275 183.545 118.321 183.782 118.316C184.294 118.305 184.785 118.112 185.165 117.77C185.546 117.428 185.791 116.961 185.856 116.453Z" fill="#263238"/>
<path d="M164.601 100.514C164.632 100.278 164.613 100.037 164.542 99.8099C164.472 99.5823 164.353 99.3727 164.194 99.1956C164.035 99.0184 163.839 98.878 163.62 98.784C163.402 98.69 163.165 98.6447 162.927 98.6512C162.416 98.6618 161.926 98.8558 161.547 99.1977C161.168 99.5397 160.924 100.007 160.861 100.514C160.829 100.75 160.849 100.99 160.919 101.217C160.989 101.445 161.108 101.655 161.267 101.832C161.427 102.009 161.622 102.149 161.841 102.243C162.06 102.337 162.297 102.382 162.535 102.376C163.046 102.367 163.536 102.174 163.916 101.831C164.296 101.489 164.539 101.021 164.601 100.514Z" fill="#263238"/>
<path d="M170.361 100.514C170.391 100.277 170.369 100.038 170.297 99.8107C170.225 99.5837 170.106 99.3747 169.946 99.1981C169.787 99.0214 169.591 98.8811 169.373 98.7868C169.154 98.6924 168.918 98.6462 168.68 98.6512C168.174 98.6689 167.692 98.866 167.319 99.2074C166.946 99.5487 166.706 100.012 166.644 100.514C166.614 100.749 166.634 100.989 166.705 101.216C166.776 101.443 166.895 101.652 167.054 101.829C167.212 102.006 167.408 102.146 167.626 102.241C167.844 102.335 168.08 102.381 168.318 102.376C168.825 102.36 169.309 102.164 169.684 101.822C170.058 101.481 170.299 101.017 170.361 100.514Z" fill="#263238"/>
<path d="M176.114 100.514C176.145 100.278 176.124 100.038 176.053 99.8112C175.983 99.5842 175.864 99.3751 175.705 99.1983C175.546 99.0214 175.351 98.881 175.132 98.7866C174.914 98.6922 174.678 98.646 174.44 98.6512C173.929 98.6615 173.438 98.8553 173.058 99.1971C172.677 99.539 172.432 100.006 172.367 100.514C172.336 100.75 172.357 100.99 172.428 101.218C172.5 101.445 172.619 101.655 172.779 101.832C172.939 102.009 173.135 102.149 173.354 102.243C173.573 102.337 173.81 102.382 174.048 102.376C174.559 102.367 175.05 102.174 175.43 101.831C175.809 101.489 176.052 101.021 176.114 100.514Z" fill="#263238"/>
<path d="M181.867 100.514C181.899 100.278 181.879 100.037 181.809 99.8099C181.739 99.5823 181.62 99.3727 181.461 99.1956C181.302 99.0184 181.106 98.878 180.887 98.784C180.668 98.69 180.431 98.6447 180.193 98.6512C179.683 98.6618 179.193 98.8558 178.814 99.1977C178.434 99.5397 178.191 100.007 178.127 100.514C178.096 100.75 178.116 100.99 178.186 101.217C178.256 101.445 178.375 101.655 178.534 101.832C178.693 102.009 178.889 102.149 179.108 102.243C179.327 102.337 179.563 102.382 179.801 102.376C180.312 102.367 180.803 102.174 181.183 101.831C181.562 101.489 181.805 101.021 181.867 100.514Z" fill="#263238"/>
<path d="M187.628 100.514C187.657 100.277 187.635 100.038 187.564 99.8107C187.492 99.5837 187.372 99.3747 187.213 99.1981C187.053 99.0214 186.858 98.8811 186.639 98.7868C186.421 98.6924 186.184 98.6462 185.946 98.6512C185.436 98.6618 184.946 98.8558 184.567 99.1978C184.187 99.5397 183.944 100.007 183.88 100.514C183.85 100.75 183.871 100.99 183.942 101.218C184.013 101.445 184.133 101.655 184.292 101.832C184.452 102.009 184.648 102.149 184.868 102.243C185.087 102.337 185.324 102.382 185.562 102.376C186.073 102.367 186.564 102.174 186.943 101.831C187.323 101.489 187.566 101.021 187.628 100.514Z" fill="#263238"/>
<path d="M193.381 100.514C193.411 100.278 193.391 100.038 193.32 99.8112C193.249 99.5842 193.13 99.3751 192.971 99.1983C192.812 99.0214 192.617 98.881 192.399 98.7866C192.181 98.6922 191.945 98.646 191.707 98.6512C191.196 98.6615 190.705 98.8553 190.324 99.1971C189.944 99.539 189.698 100.006 189.633 100.514C189.603 100.75 189.624 100.99 189.695 101.218C189.766 101.445 189.886 101.655 190.045 101.832C190.205 102.009 190.401 102.149 190.621 102.243C190.84 102.337 191.077 102.382 191.315 102.376C191.826 102.367 192.317 102.174 192.696 101.831C193.076 101.489 193.319 101.021 193.381 100.514Z" fill="#263238"/>
<path d="M188.51 78.1273L188.103 81.9954C188.074 82.1637 187.989 82.3172 187.862 82.4309C187.734 82.5446 187.572 82.6117 187.402 82.6212C187.321 82.6242 187.241 82.6095 187.167 82.5782C187.093 82.5469 187.027 82.4998 186.973 82.4402C186.919 82.3805 186.879 82.3098 186.855 82.2329C186.832 82.1561 186.825 82.075 186.836 81.9954L187.243 78.1273C187.279 77.8409 187.253 77.5502 187.166 77.2748C187.08 76.9995 186.935 76.7459 186.742 76.5314C186.549 76.3169 186.312 76.1464 186.047 76.0315C185.782 75.9165 185.496 75.8599 185.207 75.8653H183.813C183.193 75.8801 182.599 76.1164 182.138 76.5313C181.678 76.9463 181.381 77.5125 181.302 78.1273L180.947 81.7164H179.681L180.035 78.1273C180.155 77.1678 180.616 76.2836 181.335 75.6368C182.054 74.9901 182.982 74.6241 183.948 74.6062H185.336C185.786 74.5948 186.233 74.681 186.647 74.8589C187.061 75.0368 187.431 75.3021 187.733 75.6366C188.034 75.9711 188.26 76.3669 188.394 76.7969C188.528 77.2268 188.568 77.6807 188.51 78.1273Z" fill="#142CB1"/>
<path d="M188.51 81.8521L187.718 89.3921C187.688 89.6262 187.574 89.8415 187.399 89.9992C187.223 90.1569 186.997 90.2464 186.761 90.2517H179.221C179.112 90.2527 179.005 90.2303 178.906 90.186C178.806 90.1417 178.718 90.0765 178.646 89.9949C178.575 89.9133 178.522 89.8172 178.491 89.7131C178.46 89.6091 178.452 89.4996 178.467 89.3921L179.258 81.8521C179.273 81.6971 179.325 81.5479 179.409 81.4168C179.493 81.2857 179.606 81.1764 179.741 81.0981C179.885 81.0137 180.049 80.9695 180.216 80.9699H187.756C187.91 80.9683 188.062 81.0101 188.193 81.0906C188.314 81.173 188.409 81.289 188.465 81.4242C188.521 81.5594 188.537 81.7081 188.51 81.8521Z" fill="#142CB1"/>
<path d="M229.128 66.0935C229.028 66.0935 228.932 66.0538 228.861 65.9831C228.791 65.9124 228.751 65.8165 228.751 65.7165C228.751 65.6165 228.791 65.5206 228.861 65.4499C228.932 65.3792 229.028 65.3395 229.128 65.3395L247.556 65.2339C247.656 65.2339 247.752 65.2737 247.822 65.3444C247.893 65.4151 247.933 65.511 247.933 65.6109C247.933 65.7109 247.893 65.8068 247.822 65.8775C247.752 65.9482 247.656 65.9879 247.556 65.9879L229.136 66.0935H229.128Z" fill="#263238"/>
<path d="M251.092 65.9653C250.992 65.9653 250.896 65.9256 250.825 65.8549C250.755 65.7842 250.715 65.6883 250.715 65.5883C250.715 65.4883 250.755 65.3924 250.825 65.3217C250.896 65.251 250.992 65.2113 251.092 65.2113H257.607C257.707 65.2113 257.802 65.251 257.873 65.3217C257.944 65.3924 257.984 65.4883 257.984 65.5883C257.984 65.6883 257.944 65.7842 257.873 65.8549C257.802 65.9256 257.707 65.9653 257.607 65.9653H251.092Z" fill="#263238"/>
<g opacity="0.3">
<path opacity="0.3" d="M128.265 69.6298H149.377L127.911 158.474H110.893C110.402 158.464 109.92 158.343 109.482 158.121C109.044 157.898 108.662 157.58 108.365 157.189C108.068 156.798 107.863 156.345 107.765 155.864C107.668 155.382 107.68 154.885 107.802 154.41L128.265 69.6298Z" fill="white"/>
<path opacity="0.3" d="M158.727 69.6298H167.677L146.233 158.474H137.283L158.727 69.6298Z" fill="white"/>
</g>
<path d="M16.3341 41.8976H20.6168C19.6135 41.8834 18.6183 42.0796 17.6955 42.4737C16.7727 42.8678 15.9428 43.4509 15.2593 44.1856C14.5758 44.9202 14.054 45.79 13.7274 46.7388C13.4008 47.6876 13.2768 48.6943 13.3633 49.694L22.449 179.608C22.6213 181.712 23.5709 183.676 25.1127 185.117C26.6544 186.559 28.6779 187.374 30.7883 187.405H26.5131C24.4019 187.374 22.3775 186.559 20.8345 185.118C19.2915 183.677 18.3403 181.712 18.1663 179.608L9.05799 49.694C8.97124 48.6924 9.09587 47.6837 9.42379 46.7333C9.75171 45.783 10.2756 44.9121 10.9616 44.1771C11.6475 43.4421 12.4802 42.8594 13.4057 42.4667C14.3312 42.074 15.3289 41.8802 16.3341 41.8976Z" fill="#142CB1"/>
<path d="M16.3341 41.8976H20.6168C19.6135 41.8834 18.6183 42.0796 17.6955 42.4737C16.7727 42.8678 15.9428 43.4509 15.2593 44.1856C14.5758 44.9202 14.054 45.79 13.7274 46.7388C13.4008 47.6876 13.2768 48.6943 13.3633 49.694L22.449 179.608C22.6213 181.712 23.5709 183.676 25.1127 185.117C26.6544 186.559 28.6779 187.374 30.7883 187.405H26.5131C22.2078 187.405 17.8647 183.914 17.5631 179.608L8.47742 49.694C8.17582 45.3887 12.0288 41.8976 16.3341 41.8976Z" fill="#263238"/>
<path d="M27.7874 187.412H80.1904C81.1962 187.431 82.1947 187.238 83.1211 186.845C84.0475 186.453 84.8811 185.871 85.5679 185.135C86.2547 184.4 86.7793 183.529 87.1076 182.578C87.436 181.627 87.5608 180.618 87.474 179.616L78.3581 49.694C78.1876 47.5878 77.2377 45.6208 75.6941 44.1777C74.1505 42.7345 72.1243 41.9188 70.0114 41.8901H17.6159C16.6119 41.8757 15.616 42.0721 14.6927 42.4667C13.7693 42.8612 12.939 43.4451 12.2554 44.1806C11.5718 44.916 11.0501 45.7868 10.724 46.7365C10.398 47.6862 10.2748 48.6937 10.3624 49.694L19.4104 179.608C19.5832 181.719 20.5379 183.689 22.0874 185.133C23.637 186.576 25.6697 187.389 27.7874 187.412Z" fill="#142CB1"/>
<g opacity="0.6">
<path opacity="0.6" d="M69.8756 44.416C71.3437 44.4392 72.7506 45.0079 73.8224 46.0114C74.8942 47.015 75.5542 48.3814 75.6739 49.8448L84.7596 179.759C84.8213 180.422 84.7423 181.091 84.5277 181.721C84.3131 182.351 83.9678 182.929 83.5144 183.417C83.0609 183.904 82.5096 184.291 81.8965 184.55C81.2834 184.81 80.6223 184.937 79.9566 184.924H27.5612C26.0923 184.901 24.6844 184.332 23.6114 183.329C22.5384 182.326 21.8768 180.959 21.7553 179.495L12.7073 49.5809C12.646 48.9211 12.724 48.2558 12.9364 47.6282C13.1488 47.0005 13.4907 46.4245 13.94 45.9374C14.3893 45.4504 14.936 45.0633 15.5446 44.8012C16.1532 44.5391 16.8101 44.4079 17.4726 44.416H69.8756Z" fill="white"/>
</g>
<g opacity="0.3">
<path opacity="0.3" d="M55.052 184.909H34.1737L51.4101 44.416H68.2319C68.9583 44.4133 69.6774 44.5606 70.3443 44.8486C71.0112 45.1366 71.6114 45.5592 72.1074 46.0899L55.052 184.909Z" fill="white"/>
<path opacity="0.3" d="M30.4263 184.909H25.7214L42.9578 44.4009H47.6628L30.4263 184.909Z" fill="white"/>
</g>
<path d="M66.7541 106.169H28.7977C28.6977 106.169 28.6018 106.129 28.5311 106.058C28.4604 105.987 28.4207 105.892 28.4207 105.792C28.4207 105.692 28.4604 105.596 28.5311 105.525C28.6018 105.454 28.6977 105.415 28.7977 105.415H66.7541C66.8535 105.417 66.9482 105.457 67.0185 105.527C67.0888 105.597 67.1292 105.692 67.1311 105.792C67.1311 105.892 67.0914 105.987 67.0207 106.058C66.95 106.129 66.8541 106.169 66.7541 106.169Z" fill="white"/>
<path d="M63.4214 111.786H33.6912C33.5912 111.786 33.4953 111.746 33.4246 111.675C33.3539 111.605 33.3142 111.509 33.3142 111.409C33.3142 111.309 33.3539 111.213 33.4246 111.142C33.4953 111.072 33.5912 111.032 33.6912 111.032H63.4214C63.5214 111.032 63.6173 111.072 63.688 111.142C63.7587 111.213 63.7984 111.309 63.7984 111.409C63.7984 111.509 63.7587 111.605 63.688 111.675C63.6173 111.746 63.5214 111.786 63.4214 111.786Z" fill="white"/>
<path d="M29.9287 79.9143L29.9815 81.4223H29.0088L28.956 79.9143L27.2294 77.2075H28.2624L29.4537 79.0774L30.5093 77.2075H31.4669L29.9287 79.9143Z" fill="#142CB1"/>
<path d="M31.5046 79.296C31.4917 78.9996 31.5422 78.7039 31.6526 78.4285C31.763 78.1532 31.9308 77.9045 32.1448 77.699C32.3588 77.4936 32.6141 77.3361 32.8938 77.237C33.1734 77.1379 33.471 77.0996 33.7666 77.1245C34.0655 77.1093 34.3645 77.1536 34.6462 77.2548C34.928 77.356 35.1868 77.5122 35.4077 77.7142C35.6286 77.9162 35.8073 78.16 35.9333 78.4315C36.0593 78.7031 36.1301 78.9969 36.1417 79.296C36.1556 79.593 36.106 79.8896 35.9961 80.1659C35.8862 80.4422 35.7185 80.6918 35.5044 80.8981C35.2903 81.1044 35.0346 81.2625 34.7544 81.3621C34.4742 81.4616 34.176 81.5001 33.8797 81.4751C33.5801 81.4903 33.2805 81.4457 32.9983 81.344C32.7161 81.2423 32.457 81.0856 32.236 80.8828C32.0149 80.68 31.8364 80.4353 31.7109 80.1629C31.5853 79.8905 31.5152 79.5958 31.5046 79.296ZM35.1238 79.296C35.1248 79.1176 35.0901 78.9407 35.0216 78.7759C34.9531 78.6111 34.8522 78.4617 34.725 78.3366C34.5978 78.2115 34.4467 78.1131 34.2808 78.0474C34.1149 77.9817 33.9375 77.9499 33.759 77.9539C33.5842 77.9465 33.4098 77.9768 33.2477 78.0428C33.0856 78.1087 32.9395 78.2086 32.8194 78.3359C32.6993 78.4632 32.6079 78.6148 32.5515 78.7804C32.4951 78.9461 32.4749 79.1219 32.4923 79.296C32.4903 79.4751 32.5243 79.6528 32.5923 79.8185C32.6603 79.9841 32.761 80.1344 32.8884 80.2604C33.0157 80.3863 33.1671 80.4853 33.3335 80.5515C33.5 80.6177 33.678 80.6497 33.8571 80.6457C34.0319 80.6507 34.2059 80.6185 34.3674 80.5513C34.5289 80.4841 34.6744 80.3834 34.7941 80.2559C34.9138 80.1283 35.0051 79.9768 35.0619 79.8113C35.1188 79.6459 35.1399 79.4702 35.1238 79.296Z" fill="#142CB1"/>
<path d="M36.8127 79.5524L36.7373 77.1924H37.71L37.7854 79.5147C37.7854 80.314 38.1775 80.6457 38.7656 80.6457C39.3537 80.6457 39.6855 80.314 39.6629 79.5147L39.5799 77.1924H40.5375L40.6204 79.5524C40.6601 79.8061 40.6408 80.0655 40.5642 80.3105C40.4875 80.5555 40.3555 80.7797 40.1784 80.9655C40.0013 81.1514 39.7838 81.294 39.5427 81.3824C39.3017 81.4708 39.0435 81.5025 38.7882 81.4751C38.5275 81.4984 38.2648 81.4651 38.0181 81.3775C37.7714 81.2899 37.5466 81.15 37.359 80.9674C37.1714 80.7848 37.0254 80.5638 36.9312 80.3196C36.8369 80.0754 36.7965 79.8137 36.8127 79.5524Z" fill="#142CB1"/>
<path d="M44.3301 81.4072L43.4781 80.231H42.5808L42.6261 81.4072H41.6534L41.5026 77.1924H43.3273C44.4507 77.1924 45.1746 77.7805 45.2047 78.7004C45.2292 78.9806 45.1623 79.2613 45.0142 79.5004C44.8661 79.7396 44.6446 79.9244 44.3829 80.0274L45.3782 81.3846L44.3301 81.4072ZM43.2971 77.9916H42.5431L42.5959 79.4544H43.3499C43.9456 79.4544 44.2321 79.1829 44.217 78.7004C44.2019 78.2178 43.8928 77.9916 43.2971 77.9916Z" fill="#142CB1"/>
<path d="M47.4366 79.296C47.421 79.0042 47.4675 78.7123 47.5731 78.4398C47.6786 78.1672 47.8408 77.9202 48.0489 77.7149C48.257 77.5097 48.5062 77.3509 48.7802 77.2492C49.0542 77.1474 49.3467 77.1049 49.6383 77.1245C49.9684 77.1143 50.2967 77.1765 50.6003 77.3068C50.9038 77.4371 51.1751 77.6322 51.3951 77.8785L50.7919 78.4516C50.6585 78.2966 50.4929 78.1725 50.3067 78.0878C50.1206 78.0032 49.9182 77.9601 49.7137 77.9615C49.537 77.9522 49.3604 77.9809 49.1958 78.0457C49.0312 78.1105 48.8824 78.2098 48.7594 78.3371C48.6365 78.4643 48.5423 78.6164 48.4832 78.7831C48.4241 78.9499 48.4014 79.1274 48.4168 79.3036C48.4156 79.485 48.4513 79.6648 48.5215 79.832C48.5918 79.9993 48.6953 80.1506 48.8256 80.2767C48.956 80.4029 49.1106 80.5013 49.2801 80.566C49.4496 80.6307 49.6304 80.6604 49.8117 80.6533C50.012 80.6574 50.2104 80.6145 50.3911 80.5281C50.5718 80.4417 50.7297 80.3141 50.8522 80.1556L51.4931 80.7287C51.288 80.979 51.0269 81.1777 50.7309 81.3087C50.4349 81.4397 50.1123 81.4992 49.7891 81.4827C49.4907 81.4948 49.193 81.4477 48.9129 81.3441C48.6329 81.2406 48.3761 81.0826 48.1574 80.8793C47.9387 80.6761 47.7624 80.4315 47.6387 80.1598C47.515 79.888 47.4463 79.5945 47.4366 79.296Z" fill="#142CB1"/>
<path d="M51.7495 79.296C51.7372 79.0031 51.7868 78.7108 51.8949 78.4382C52.0031 78.1657 52.1674 77.9189 52.3772 77.7141C52.587 77.5093 52.8376 77.3509 53.1127 77.2493C53.3878 77.1477 53.6812 77.1052 53.9738 77.1245C54.2728 77.1093 54.5717 77.1536 54.8535 77.2548C55.1352 77.3561 55.394 77.5122 55.6149 77.7142C55.8358 77.9162 56.0145 78.16 56.1405 78.4315C56.2665 78.7031 56.3373 78.9969 56.3489 79.296C56.3623 79.5896 56.3135 79.8828 56.2059 80.1562C56.0982 80.4297 55.934 80.6774 55.7241 80.883C55.5141 81.0887 55.2631 81.2478 54.9875 81.3498C54.7119 81.4518 54.4178 81.4945 54.1246 81.4751C53.825 81.4903 53.5254 81.4457 53.2432 81.3441C52.961 81.2424 52.7019 81.0856 52.4809 80.8828C52.2598 80.68 52.0814 80.4353 51.9558 80.1629C51.8302 79.8905 51.7601 79.5958 51.7495 79.296ZM55.3611 79.296C55.3632 79.1179 55.3294 78.9413 55.2617 78.7765C55.1941 78.6117 55.0939 78.4623 54.9673 78.337C54.8406 78.2118 54.6901 78.1133 54.5246 78.0475C54.3591 77.9817 54.182 77.9499 54.0039 77.9539C53.8291 77.9466 53.6547 77.9769 53.4926 78.0428C53.3305 78.1087 53.1844 78.2087 53.0643 78.3359C52.9442 78.4632 52.8528 78.6148 52.7964 78.7804C52.74 78.9461 52.7198 79.1219 52.7372 79.296C52.7341 79.4748 52.7672 79.6523 52.8344 79.8179C52.9016 79.9836 53.0016 80.1339 53.1283 80.26C53.2551 80.386 53.406 80.4852 53.572 80.5515C53.738 80.6177 53.9157 80.6498 54.0944 80.6457C54.2696 80.6519 54.4442 80.6206 54.6063 80.5538C54.7684 80.4871 54.9143 80.3864 55.0343 80.2585C55.1543 80.1307 55.2455 79.9787 55.3019 79.8127C55.3583 79.6467 55.3785 79.4705 55.3611 79.296Z" fill="#142CB1"/>
<path d="M57.0124 77.1924H58.92C59.2172 77.1633 59.5171 77.1956 59.8012 77.2873C60.0854 77.379 60.3476 77.5281 60.5718 77.7253C60.7959 77.9226 60.9771 78.1638 61.1041 78.434C61.2311 78.7042 61.3013 78.9976 61.3102 79.296C61.3269 79.5908 61.2785 79.8857 61.1686 80.1597C61.0586 80.4337 60.8897 80.6802 60.6739 80.8817C60.458 81.0831 60.2005 81.2346 59.9195 81.3255C59.6386 81.4163 59.3411 81.4442 59.0482 81.4072H57.133L57.0124 77.1924ZM58.9954 80.608C59.1732 80.6264 59.353 80.6054 59.5217 80.5463C59.6905 80.4872 59.8441 80.3916 59.9716 80.2662C60.0991 80.1409 60.1973 79.9889 60.2593 79.8212C60.3212 79.6535 60.3454 79.4742 60.33 79.296C60.3296 79.1144 60.2916 78.9349 60.2182 78.7688C60.1448 78.6026 60.0378 78.4536 59.9039 78.3309C59.7699 78.2083 59.612 78.1149 59.44 78.0565C59.2681 77.998 59.0858 77.976 58.9049 77.9916H58.0152L58.1057 80.608H58.9954Z" fill="#142CB1"/>
<path d="M65.3516 80.608V81.362H62.0943L61.9435 77.1472H65.1254V77.9012H62.969V78.8135H64.9219V79.5675H62.969V80.5402L65.3516 80.608Z" fill="#142CB1"/>
<path d="M37.2425 97.0527V98.7417H29.333V97.4071L33.5404 93.3431C34.5658 92.3402 34.7392 91.7144 34.7317 91.0811C34.7317 90.1009 34.0229 89.5278 32.7034 89.5278C32.2271 89.5038 31.7518 89.5931 31.3166 89.7884C30.8815 89.9837 30.4988 90.2794 30.2001 90.6513L28.7826 89.5731C29.27 88.9769 29.8918 88.5049 30.5969 88.1955C31.302 87.8862 32.0705 87.7485 32.8391 87.7936C35.1765 87.7936 36.7072 88.9774 36.7373 90.885C36.7373 91.9256 36.481 92.8831 35.0182 94.2856L32.1907 97.0226L37.2425 97.0527Z" fill="#263238"/>
<path d="M46.004 95.5146C46.004 97.3242 44.692 98.8925 41.8042 98.8925C40.3496 98.9184 38.9243 98.4829 37.7326 97.6484L38.5695 96.0952C39.4781 96.7963 40.5963 97.1708 41.7439 97.1583C43.1689 97.1583 44.0059 96.5249 44.0059 95.5297C44.0059 94.5344 43.2519 93.9236 41.6383 93.9236H40.6581V92.5589L42.988 89.656H38.0945V87.9821H45.4385V89.3242L42.8749 92.4307C44.9333 92.672 46.004 93.8935 46.004 95.5146Z" fill="#263238"/>
<path d="M56.0623 95.688C56.0623 97.6861 54.3809 98.9302 51.7042 98.9302C49.0275 98.9302 47.2933 97.6861 47.2632 95.688C47.2405 95.1387 47.3896 94.5959 47.6895 94.1351C47.9895 93.6744 48.4255 93.3185 48.937 93.1169C48.5196 92.9053 48.1693 92.5816 47.9256 92.182C47.6819 91.7825 47.5543 91.3229 47.5572 90.8549C47.5572 89.0076 49.1256 87.8389 51.5082 87.8389C53.8908 87.8389 55.5572 88.9925 55.5873 90.8549C55.6107 91.3202 55.4975 91.7822 55.2617 92.1841C55.026 92.586 54.6779 92.9102 54.2603 93.1169C54.7846 93.3142 55.2371 93.6652 55.5587 94.124C55.8802 94.5827 56.0557 95.1278 56.0623 95.688ZM54.0416 95.6277C54.0416 94.5645 53.0916 93.901 51.6138 93.901C50.1359 93.901 49.2537 94.5645 49.2763 95.6277C49.299 96.6908 50.1962 97.3619 51.6741 97.3619C53.1519 97.3619 54.0643 96.6833 54.0416 95.59V95.6277ZM49.5176 90.9529C49.5176 91.8728 50.2716 92.4609 51.576 92.4609C52.8805 92.4609 53.6269 91.8728 53.6043 90.9529C53.5817 90.033 52.7523 89.4449 51.5157 89.4449C50.2792 89.4449 49.5176 89.9425 49.5327 90.9152L49.5176 90.9529Z" fill="#263238"/>
<path d="M66.0905 95.688C66.0905 97.6861 64.4091 98.9302 61.7324 98.9302C59.0557 98.9302 57.314 97.6484 57.314 95.688C57.2925 95.1389 57.442 94.5966 57.7418 94.1361C58.0416 93.6755 58.477 93.3194 58.9879 93.1169C58.5701 92.9063 58.22 92.5826 57.9773 92.1827C57.7347 91.7827 57.6093 91.3226 57.6156 90.8549C57.5779 89.0076 59.1764 87.8389 61.559 87.8389C63.9416 87.8389 65.608 88.9925 65.6381 90.8549C65.6615 91.3202 65.5483 91.7822 65.3126 92.1841C65.0768 92.586 64.7287 92.9102 64.3111 93.1169C64.8312 93.3178 65.2789 93.6704 65.5962 94.1288C65.9135 94.5873 66.0857 95.1305 66.0905 95.688ZM64.0698 95.6277C64.0698 94.5645 63.1198 93.901 61.6419 93.901C60.1641 93.901 59.2819 94.5645 59.3045 95.6277C59.3272 96.6908 60.2244 97.3619 61.7023 97.3619C63.1801 97.3619 64.1 96.6833 64.1 95.59L64.0698 95.6277ZM59.5458 90.9529C59.5458 91.8728 60.3375 92.4609 61.6042 92.4609C62.871 92.4609 63.6551 91.8728 63.64 90.9529C63.625 90.033 62.7805 89.4449 61.5515 89.4449C60.3224 89.4449 59.576 89.9425 59.576 90.9152L59.5458 90.9529Z" fill="#263238"/>
<path d="M10.1814 79.3337C10.0853 79.3339 9.99264 79.2973 9.92256 79.2314C9.85247 79.1655 9.81021 79.0754 9.80444 78.9793L8.46987 60.7552C8.46362 60.6564 8.4965 60.5591 8.5614 60.4843C8.62629 60.4095 8.718 60.3633 8.81671 60.3555C8.91632 60.3492 9.01448 60.3819 9.09046 60.4466C9.16644 60.5113 9.21428 60.603 9.22387 60.7024L10.566 78.9266C10.5701 78.9761 10.5644 79.026 10.5492 79.0733C10.5339 79.1206 10.5095 79.1645 10.4773 79.2023C10.445 79.2401 10.4056 79.2712 10.3613 79.2938C10.317 79.3163 10.2687 79.3299 10.2191 79.3337H10.1814Z" fill="#142CB1"/>
<path d="M8.59051 57.611C8.49554 57.6113 8.40395 57.5757 8.33406 57.5114C8.26416 57.4471 8.22111 57.3588 8.21351 57.2642L7.85914 52.4536C7.85567 52.4041 7.86199 52.3544 7.87774 52.3074C7.89348 52.2603 7.91834 52.2168 7.9509 52.1793C8.01665 52.1037 8.10976 52.0572 8.20974 52.0502C8.30973 52.0432 8.4084 52.0762 8.48405 52.142C8.55971 52.2078 8.60614 52.3009 8.61314 52.4008L8.96751 57.2114C8.97375 57.3102 8.94088 57.4075 8.87598 57.4823C8.81109 57.557 8.71938 57.6033 8.62067 57.611H8.59051Z" fill="#142CB1"/>
<path d="M44.021 34.6819C43.921 34.6819 43.8251 34.6421 43.7544 34.5714C43.6837 34.5007 43.644 34.4048 43.644 34.3049V23.2135C43.644 23.1135 43.6837 23.0176 43.7544 22.9469C43.8251 22.8762 43.921 22.8365 44.021 22.8365C44.121 22.8365 44.2169 22.8762 44.2876 22.9469C44.3583 23.0176 44.398 23.1135 44.398 23.2135V34.3049C44.398 34.4048 44.3583 34.5007 44.2876 34.5714C44.2169 34.6421 44.121 34.6819 44.021 34.6819Z" fill="#142CB1"/>
<path d="M35.2369 37.0343C35.1711 37.0339 35.1065 37.0163 35.0496 36.9832C34.9928 36.9502 34.9455 36.9028 34.9126 36.8458L29.3632 27.2399C29.3132 27.1529 29.2998 27.0496 29.326 26.9527C29.3521 26.8559 29.4157 26.7734 29.5027 26.7234C29.5897 26.6734 29.693 26.66 29.7898 26.6862C29.8867 26.7123 29.9692 26.7759 30.0192 26.8629L35.5611 36.4688C35.5866 36.5112 35.6033 36.5583 35.6103 36.6072C35.6173 36.6562 35.6144 36.7061 35.6017 36.7539C35.589 36.8017 35.5669 36.8465 35.5366 36.8856C35.5063 36.9247 35.4685 36.9573 35.4254 36.9815C35.3676 37.0139 35.303 37.032 35.2369 37.0343Z" fill="#142CB1"/>
<path d="M52.79 37.0343C52.7244 37.0346 52.6598 37.0191 52.6015 36.9891C52.5154 36.9373 52.4529 36.8538 52.4276 36.7566C52.4022 36.6594 52.4159 36.5561 52.4658 36.4688L58.0077 26.8629C58.0576 26.7759 58.1401 26.7123 58.237 26.6862C58.3339 26.66 58.4372 26.6734 58.5241 26.7234C58.6111 26.7734 58.6747 26.8559 58.7009 26.9527C58.727 27.0496 58.7136 27.1529 58.6636 27.2399L53.1293 36.876C53.0914 36.9296 53.0402 36.9725 52.9807 37.0003C52.9212 37.028 52.8554 37.0398 52.79 37.0343Z" fill="#142CB1"/>
<path d="M81.0725 282.077C81.2136 282.022 81.3387 281.932 81.4362 281.816C81.5336 281.7 81.6005 281.562 81.6305 281.413C81.6593 281.324 81.6633 281.228 81.642 281.137C81.6208 281.045 81.5751 280.961 81.5098 280.893C80.9293 280.29 78.5692 280.72 78.3053 280.772C78.2747 280.775 78.2456 280.787 78.2225 280.808C78.1994 280.828 78.1835 280.855 78.1772 280.885C78.1712 280.915 78.1737 280.945 78.1844 280.973C78.195 281.001 78.2135 281.026 78.2375 281.044C78.708 281.388 79.2135 281.681 79.7455 281.918C80.1556 282.125 80.6253 282.181 81.0725 282.077ZM81.2836 281.104C81.3114 281.135 81.3303 281.174 81.3383 281.215C81.3462 281.256 81.343 281.298 81.3289 281.338C81.3115 281.437 81.2692 281.53 81.2058 281.607C81.1425 281.685 81.0602 281.746 80.967 281.783C80.5372 281.941 79.7153 281.647 78.705 281.029C79.6852 280.863 80.9745 280.78 81.2836 281.104Z" fill="#142CB1"/>
<path d="M78.3506 281.074C79.1046 280.983 80.7332 280.131 80.8765 279.393C80.9015 279.272 80.8836 279.146 80.8258 279.038C80.7679 278.929 80.6738 278.844 80.5598 278.797C80.4536 278.738 80.336 278.703 80.215 278.694C80.094 278.685 79.9724 278.702 79.8586 278.744C78.9538 279.053 78.2149 280.787 78.1847 280.863C78.1739 280.886 78.1682 280.912 78.1682 280.938C78.1682 280.964 78.1739 280.99 78.1847 281.014C78.2023 281.037 78.2257 281.055 78.2526 281.066L78.3506 281.074ZM80.4015 279.068C80.5824 279.166 80.59 279.264 80.5749 279.332C80.4844 279.785 79.376 280.486 78.5994 280.704C78.8784 280.139 79.4213 279.197 79.9642 279.031C80.085 278.981 80.2203 278.981 80.3412 279.031L80.4015 279.068Z" fill="#142CB1"/>
<path d="M71.1951 278.035L77.3327 280.516L82.6936 266.333L76.5485 263.853L71.1951 278.035Z" fill="#FFB573"/>
<path d="M78.1093 280.011L71.2177 277.229C71.1004 277.177 70.9683 277.17 70.8462 277.209C70.7241 277.248 70.6204 277.33 70.5542 277.44L67.5382 282.491C67.467 282.621 67.4243 282.765 67.413 282.913C67.4017 283.06 67.4221 283.209 67.4728 283.348C67.5234 283.487 67.6033 283.614 67.7069 283.72C67.8105 283.826 67.9355 283.908 68.0736 283.962C70.5014 284.897 71.7154 285.221 74.7465 286.45C76.6164 287.204 79.2705 288.493 81.8341 289.541C84.3977 290.589 85.6041 288.131 84.6163 287.468C80.2356 284.505 80.0923 282.793 78.999 280.803C78.8042 280.443 78.4894 280.163 78.1093 280.011Z" fill="#263238"/>
<path d="M82.6107 273.293L71.9491 268.98L72.9293 265.074L84.3675 269.259L82.6107 273.293Z" fill="#142CB1"/>
<path d="M93.2873 109.132C91.1234 115.398 84.7219 130.146 79.7832 124.001C78.8942 122.915 78.1677 121.706 77.6267 120.412C75.5382 115.247 75.0179 106.877 74.754 105.045L73.0726 99.3072C73.0429 99.2094 73.0276 99.1078 73.0273 99.0056V95.7257C73.0273 94.3987 74.098 93.607 75.5457 93.7276C75.5457 93.7276 77.8831 93.4562 77.8831 94.8511L78.3355 99.7747C78.5693 101.486 77.8907 103.869 78.2903 105.437C79.7983 111.341 81.8718 111.612 83.1762 117.705C84.9933 113.309 88.2431 105.701 88.2431 105.701C90.3995 105.973 93.9961 107.073 93.2873 109.132Z" fill="#FFB573"/>
<path d="M85.5513 126.248C85.212 126.777 84.7495 127.215 84.2033 127.526C83.6571 127.837 83.0436 128.011 82.4155 128.032C81.7874 128.054 81.1635 127.922 80.5973 127.65C80.0311 127.377 79.5396 126.971 79.1649 126.466C78.2711 125.279 77.5689 123.958 77.0839 122.553C75.1235 116.121 73.9095 112.14 73.7437 105.422C74.4384 104.72 75.3162 104.227 76.2772 103.999C77.2383 103.771 78.244 103.818 79.18 104.133L82.392 115.013C82.392 115.013 88.9292 98.7643 91.5758 98.1838C94.6898 97.4976 95.9867 100.28 97.3062 103.703C98.2562 106.161 89.8114 119.68 85.5513 126.248Z" fill="#142CB1"/>
<path d="M111.964 81.92C111.21 85.69 109.566 93.9237 112.205 96.442C112.205 96.442 111.172 100.265 104.168 100.265C96.4541 100.265 100.48 96.442 100.48 96.442C104.688 95.4392 104.575 92.3176 103.843 89.3846L111.964 81.92Z" fill="#FFB573"/>
<path d="M100.179 73.068C100.224 73.0751 100.27 73.0751 100.315 73.068C100.384 73.0296 100.436 72.9659 100.46 72.8901C100.484 72.8143 100.478 72.7322 100.443 72.6609C100.241 72.2277 99.9378 71.8498 99.5583 71.5596C99.1788 71.2694 98.7346 71.0755 98.2637 70.9945C98.2245 70.9893 98.1846 70.992 98.1465 71.0025C98.1083 71.0131 98.0727 71.0312 98.0417 71.0558C98.0107 71.0805 97.985 71.1111 97.9662 71.1459C97.9473 71.1807 97.9357 71.219 97.932 71.2584C97.9267 71.2976 97.9295 71.3375 97.94 71.3757C97.9505 71.4139 97.9687 71.4495 97.9933 71.4805C98.018 71.5114 98.0486 71.5371 98.0834 71.556C98.1182 71.5748 98.1565 71.5865 98.1959 71.5902C98.567 71.6625 98.9156 71.8219 99.2132 72.0553C99.5107 72.2886 99.7487 72.5892 99.9075 72.9323C99.9367 72.9769 99.9772 73.0129 100.025 73.0368C100.073 73.0606 100.126 73.0714 100.179 73.068Z" fill="#263238"/>
<path d="M97.8792 76.3253C97.2824 77.4278 96.5365 78.4427 95.6624 79.3413C95.8992 79.5583 96.1802 79.7212 96.4862 79.8189C96.7921 79.9165 97.1156 79.9465 97.4343 79.9068L97.8792 76.3253Z" fill="#ED893E"/>
<path d="M98.4824 75.2244C98.5955 75.7221 98.4145 76.1896 98.0903 76.2574C97.7661 76.3253 97.4042 75.9784 97.2986 75.5034C97.193 75.0284 97.3664 74.5383 97.6982 74.4629C98.03 74.3875 98.3768 74.7193 98.4824 75.2244Z" fill="#263238"/>
<path d="M97.849 74.4403L96.5672 74.3498C96.5672 74.3498 97.3891 75.1566 97.849 74.4403Z" fill="#263238"/>
<path opacity="0.2" d="M93.0159 105.92C94.3505 104.691 95.2779 105.06 95.866 106.033C96.4767 108.853 92.85 114.764 91.425 117.004L93.0159 105.92Z" fill="black"/>
<path d="M123.892 109.637C123.719 112.743 123.425 116.657 122.95 121.58C122.452 126.775 121.743 133.086 120.771 140.755C110.524 140.755 99.7943 140.596 94.8104 140.596C95.2326 130.41 95.3834 120.087 90.8142 99.8199C90.7569 99.5687 90.7507 99.3084 90.796 99.0547C90.8413 98.801 90.9371 98.559 91.0778 98.3431C91.2185 98.1271 91.4011 97.9417 91.6149 97.7977C91.8287 97.6538 92.0692 97.5543 92.3222 97.5052C95.3008 96.9652 98.31 96.6101 101.333 96.442C105.236 96.1627 109.154 96.1627 113.057 96.442C118.086 96.9019 123.802 98.0707 123.802 98.0707C123.802 98.0707 124.42 99.9406 123.892 109.637Z" fill="#142CB1"/>
<path opacity="0.2" d="M123.892 109.637C123.719 112.743 123.425 116.657 122.95 121.58C120.19 118.383 117.581 107.375 118.426 103.613C120.483 105.134 122.291 106.965 123.787 109.041C123.833 109.238 123.868 109.437 123.892 109.637Z" fill="black"/>
<path d="M150.501 123.435L155.779 120.48L156.759 125.856C156.759 125.856 152.31 127.567 149.973 126.368L150.501 123.435Z" fill="#FFB573"/>
<path d="M159.27 121.09L159.639 122.847C159.694 123.117 159.667 123.396 159.564 123.651C159.461 123.905 159.285 124.124 159.059 124.28L156.736 125.848L155.756 120.472L157.573 120.02C157.755 119.974 157.944 119.966 158.13 119.996C158.315 120.025 158.492 120.092 158.651 120.192C158.809 120.292 158.946 120.423 159.052 120.578C159.159 120.732 159.233 120.907 159.27 121.09Z" fill="#FFB573"/>
<path d="M118.84 104.299C120.522 107.722 126.69 120.653 129.396 123.639L129.932 124.197L130.196 124.476C130.286 124.566 130.362 124.649 130.505 124.777C130.991 125.24 131.527 125.647 132.103 125.991C133.132 126.585 134.238 127.032 135.391 127.318C137.411 127.787 139.486 127.982 141.558 127.899C145.42 127.744 149.247 127.096 152.944 125.969L152.318 122.832C150.576 122.983 148.752 123.088 146.987 123.119C145.239 123.17 143.489 123.115 141.747 122.953C140.132 122.837 138.537 122.525 136.997 122.025C136.375 121.816 135.785 121.519 135.247 121.143C135.041 120.998 134.852 120.831 134.682 120.645C134.622 120.584 134.567 120.518 134.516 120.449L134.32 120.216L133.92 119.748C131.839 117.139 126.343 104.563 124.691 101.418L118.84 104.299Z" fill="#FFB573"/>
<path d="M150.418 128.789C146.072 131.098 140.989 131.592 136.28 130.161C131.789 128.716 128 125.645 125.657 121.55C122.935 117.546 115.689 106.221 116.609 103.296C117.687 99.7973 119.979 97.6258 123.809 98.5683C126.501 99.2167 131.636 112.291 134.124 117.516C135.097 118.972 136.967 121.286 139.055 121.995C142.742 123.269 145.457 122.749 149.317 122.168C150.026 122.591 149.973 123.247 150.327 123.978C150.708 124.72 150.914 125.539 150.93 126.373C150.945 127.207 150.77 128.033 150.418 128.789Z" fill="#142CB1"/>
<path d="M115.764 75.8804C114.61 82.0783 114.256 84.7249 110.697 87.5448C105.359 91.7823 97.9923 89.0076 97.276 82.5835C96.6275 76.8003 98.6256 67.6317 105.05 65.905C106.464 65.5168 107.955 65.4968 109.379 65.8468C110.804 66.1969 112.115 66.9053 113.189 67.9049C114.262 68.9044 115.062 70.1619 115.513 71.5578C115.964 72.9538 116.05 74.4418 115.764 75.8804Z" fill="#FFB573"/>
<path d="M137.766 110.195C136.582 111.545 136.213 112.329 134.561 113.06C132.91 113.792 129.336 113.151 128.198 111.756C128.567 112.842 130.723 114.772 131.854 114.945C130.578 115.645 129.101 115.889 127.667 115.637C126.233 115.385 124.929 114.651 123.968 113.558C124.125 114.238 124.455 114.866 124.925 115.382C125.395 115.898 125.99 116.285 126.652 116.506C112.205 116.883 118.29 110.082 109.242 100.408C99.2288 89.7012 101.4 80.8493 101.4 80.8493C101.424 78.6446 100.734 76.4914 99.4324 74.7117C97.9847 72.8569 98.407 70.3536 98.8669 68.9512C99.538 66.8927 101.581 66.1689 103.542 66.0483C103.889 64.02 108.066 64.3895 108.571 64.7288C109.076 65.0681 109.136 65.0002 109.596 64.7288C110.614 64.0728 113.178 63.3942 115.922 65.611C117.596 66.9682 119.391 69.381 119.451 74.5685C119.511 79.9445 116.94 86.3309 125.837 94.4967C131.078 99.2921 128.567 109.629 137.766 110.195Z" fill="#263238"/>
<path d="M100.209 76.3479C99.508 77.342 99.2164 78.5678 99.3947 79.7711C99.6511 81.362 101.197 81.4675 102.32 80.4496C103.444 79.4317 104.424 77.592 103.595 76.2725C102.765 74.953 101.084 75.1415 100.209 76.3479Z" fill="#FFB573"/>
<path d="M114.203 140.747C114.203 140.747 111.119 184.034 107.651 212.581C106.608 221.148 103.996 229.45 99.9452 237.071L82.95 269.161L74.2338 265.73C74.2338 265.73 80.2658 235.231 92.0206 218.598C92.0206 218.598 83.229 168.886 94.735 140.596L114.203 140.747Z" fill="#263238"/>
<path opacity="0.2" d="M102.35 151.235C102.35 151.235 104.944 170.839 106.362 182.504C101.046 175.491 96.9216 165.704 102.35 151.235Z" fill="black"/>
<path d="M136.213 286.141C136.314 286.028 136.384 285.891 136.416 285.743C136.447 285.595 136.44 285.441 136.394 285.296C136.376 285.204 136.334 285.118 136.272 285.048C136.209 284.977 136.129 284.925 136.039 284.897C135.232 284.625 133.355 286.096 133.144 286.262C133.12 286.282 133.103 286.308 133.094 286.337C133.085 286.366 133.084 286.398 133.091 286.427C133.1 286.455 133.117 286.48 133.14 286.498C133.163 286.517 133.19 286.529 133.219 286.533C133.805 286.622 134.4 286.645 134.991 286.601C135.439 286.593 135.871 286.431 136.213 286.141ZM135.934 285.191C135.974 285.203 136.01 285.226 136.037 285.258C136.063 285.291 136.08 285.33 136.084 285.372C136.118 285.466 136.125 285.567 136.107 285.665C136.088 285.763 136.044 285.854 135.979 285.93C135.677 286.269 134.818 286.39 133.641 286.269C134.41 285.696 135.511 285.04 135.934 285.191Z" fill="#142CB1"/>
<path d="M133.332 286.51C133.928 286.096 134.991 284.58 134.765 283.864C134.729 283.745 134.653 283.641 134.55 283.571C134.447 283.501 134.323 283.469 134.199 283.479C134.079 283.476 133.96 283.498 133.849 283.545C133.739 283.592 133.64 283.662 133.558 283.751C132.903 284.444 133.076 286.314 133.083 286.397C133.088 286.424 133.098 286.449 133.114 286.472C133.13 286.494 133.15 286.512 133.174 286.525C133.201 286.532 133.23 286.532 133.257 286.525C133.283 286.528 133.309 286.523 133.332 286.51ZM134.192 283.788C134.395 283.788 134.448 283.879 134.471 283.947C134.599 284.392 133.958 285.515 133.378 286.065C133.29 285.339 133.432 284.603 133.785 283.962C133.87 283.866 133.989 283.807 134.116 283.796L134.192 283.788Z" fill="#142CB1"/>
<path d="M125.566 287.121L132.171 286.488L130.15 271.483L123.545 272.124L125.566 287.121Z" fill="#FFB573"/>
<path d="M132.616 285.696L125.197 286.412C125.069 286.421 124.949 286.477 124.86 286.569C124.771 286.661 124.719 286.782 124.714 286.91L124.443 292.769C124.443 292.917 124.474 293.064 124.535 293.2C124.596 293.336 124.685 293.457 124.796 293.556C124.907 293.655 125.038 293.729 125.18 293.774C125.321 293.819 125.471 293.834 125.619 293.817C128.198 293.53 129.389 293.259 132.691 292.942C134.697 292.746 137.653 292.67 140.427 292.407C143.202 292.143 143.074 289.428 141.935 289.293C136.657 288.697 135.685 287.264 133.8 285.99C133.451 285.757 133.033 285.653 132.616 285.696Z" fill="#263238"/>
<path d="M120.733 140.74C120.733 140.74 129.185 192.396 130.806 222.993L131.116 277.809L124.277 279.144C124.277 279.144 114.377 244.173 113.231 223.958C110.215 170.334 92.7445 170.244 103.255 140.641L120.733 140.74Z" fill="#263238"/>
<path d="M133.385 278.035L122.067 279.581L120.914 275.238L133.016 273.662L133.385 278.035Z" fill="#142CB1"/>
<path d="M72.394 85.3205H72.8238C72.7215 85.3204 72.6203 85.3411 72.5262 85.3813C72.4322 85.4215 72.3473 85.4804 72.2768 85.5545C72.2063 85.6286 72.1516 85.7162 72.116 85.8121C72.0804 85.9079 72.0647 86.0101 72.0698 86.1122L72.7634 99.2393C72.784 99.4453 72.8801 99.6364 73.0333 99.7757C73.1865 99.9149 73.3858 99.9925 73.5928 99.9933H73.148C72.9414 99.9908 72.743 99.9127 72.5901 99.7738C72.4373 99.6348 72.3407 99.4447 72.3186 99.2393L71.64 86.1122C71.6349 86.0101 71.6506 85.9079 71.6862 85.8121C71.7218 85.7162 71.7765 85.6286 71.847 85.5545C71.9176 85.4804 72.0024 85.4215 72.0965 85.3813C72.1905 85.3411 72.2917 85.3204 72.394 85.3205Z" fill="#142CB1"/>
<path opacity="0.1" d="M72.394 85.3205H72.8238C72.7215 85.3204 72.6203 85.3411 72.5262 85.3813C72.4322 85.4215 72.3473 85.4804 72.2768 85.5545C72.2063 85.6286 72.1516 85.7162 72.116 85.8121C72.0804 85.9079 72.0647 86.0101 72.0698 86.1122L72.7634 99.2393C72.784 99.4453 72.8801 99.6364 73.0333 99.7757C73.1865 99.9149 73.3858 99.9925 73.5928 99.9933H73.148C72.9414 99.9908 72.743 99.9127 72.5901 99.7738C72.4373 99.6348 72.3407 99.4447 72.3186 99.2393L71.64 86.1122C71.6349 86.0101 71.6506 85.9079 71.6862 85.8121C71.7218 85.7162 71.7765 85.6286 71.847 85.5545C71.9176 85.4804 72.0024 85.4215 72.0965 85.3813C72.1905 85.3411 72.2917 85.3204 72.394 85.3205Z" fill="white"/>
<path d="M73.2611 100.031H78.5391C78.7391 100.031 78.9308 99.9516 79.0722 99.8102C79.2137 99.6688 79.2931 99.477 79.2931 99.2771L78.607 86.1499C78.5937 85.9378 78.5009 85.7385 78.3472 85.5917C78.1935 85.445 77.9901 85.3616 77.7776 85.3582H72.4995C72.3973 85.3581 72.296 85.3788 72.202 85.419C72.108 85.4592 72.0231 85.5182 71.9526 85.5922C71.8821 85.6663 71.8273 85.7539 71.7917 85.8498C71.7562 85.9457 71.7404 86.0478 71.7455 86.1499L72.4317 99.2771C72.4538 99.4824 72.5504 99.6726 72.7033 99.8115C72.8561 99.9504 73.0545 100.029 73.2611 100.031Z" fill="#142CB1"/>
<path opacity="0.4" d="M73.2611 100.031H78.5391C78.7391 100.031 78.9308 99.9516 79.0722 99.8102C79.2137 99.6688 79.2931 99.477 79.2931 99.2771L78.607 86.1499C78.5937 85.9378 78.5009 85.7385 78.3472 85.5917C78.1935 85.445 77.9901 85.3616 77.7776 85.3582H72.4995C72.3973 85.3581 72.296 85.3788 72.202 85.419C72.108 85.4592 72.0231 85.5182 71.9526 85.5922C71.8821 85.6663 71.8273 85.7539 71.7917 85.8498C71.7562 85.9457 71.7404 86.0478 71.7455 86.1499L72.4317 99.2771C72.4538 99.4824 72.5504 99.6726 72.7033 99.8115C72.8561 99.9504 73.0545 100.029 73.2611 100.031Z" fill="white"/>
<path d="M78.9764 98.9679C78.9805 99.0337 78.9712 99.0997 78.9492 99.1619C78.9272 99.2241 78.8928 99.2812 78.8482 99.3298C78.7534 99.4221 78.6262 99.4736 78.4938 99.4731H73.3591C73.2155 99.4714 73.0779 99.4151 72.9743 99.3157C72.8707 99.2162 72.8088 99.0811 72.8011 98.9377L72.1301 86.2027C72.1252 86.1379 72.1341 86.0728 72.1562 86.0118C72.1783 85.9507 72.2131 85.895 72.2583 85.8483C72.3035 85.7998 72.3585 85.7614 72.4195 85.7354C72.4805 85.7094 72.5463 85.6965 72.6126 85.6975H77.7474C77.891 85.6992 78.0285 85.7555 78.1322 85.8549C78.2358 85.9543 78.2977 86.0894 78.3053 86.2328L78.3506 87.1452L78.9764 98.9679Z" fill="#263238"/>
<g opacity="0.1">
<path opacity="0.1" d="M78.3506 87.1452L76.6466 99.458H74.6032L76.5335 85.6824H77.7474C77.891 85.6841 78.0285 85.7404 78.1322 85.8398C78.2358 85.9393 78.2977 86.0744 78.3054 86.2178L78.3506 87.1452Z" fill="white"/>
<path opacity="0.1" d="M73.8643 99.4732H73.4044L75.3346 85.6976H75.7945L73.8643 99.4732Z" fill="white"/>
</g>
<path d="M93.1441 142.21C89.305 149.776 87.242 158.118 87.1121 166.602C99.9301 176.547 111.866 164.898 126.539 166.866C126.026 160.238 123.772 148.016 121.102 141.893C111.383 142.308 102.305 141.335 93.1441 142.21Z" fill="#142CB1"/>
<path d="M94.4786 139.518C94.4786 139.518 93.4457 142.18 93.7246 142.18H120.65C120.884 142.18 121.072 142.067 121.087 141.916L121.321 139.654C121.321 139.495 121.133 139.36 120.884 139.36H94.9009C94.8229 139.349 94.7435 139.358 94.6698 139.386C94.5961 139.413 94.5304 139.459 94.4786 139.518Z" fill="white"/>
<path d="M98.2713 142.436H97.5776C97.4343 142.436 97.3288 142.361 97.3363 142.27L97.6681 139.254C97.6681 139.164 97.7963 139.096 97.932 139.096H98.6332C98.7689 139.096 98.8745 139.164 98.8669 139.254L98.5427 142.27C98.5217 142.324 98.4838 142.369 98.4348 142.399C98.3858 142.429 98.3284 142.442 98.2713 142.436Z" fill="#142CB1"/>
<path d="M115.131 142.436H114.437C114.301 142.436 114.196 142.361 114.203 142.27L114.528 139.254C114.528 139.164 114.656 139.096 114.799 139.096H115.493C115.628 139.096 115.734 139.164 115.726 139.254L115.402 142.27C115.372 142.33 115.274 142.436 115.131 142.436Z" fill="#142CB1"/>
</g>
<defs>
<clipPath id="clip0_3_349">
<rect width="279" height="299" fill="white"/>
</clipPath>
</defs>
</svg>
